<svg id="visual" viewBox="0 0 960 540" width="960" height="540" xmlns="http://www.w3.org/2000/svg" xmlns:xlink="http://www.w3.org/1999/xlink" version="1.1"><rect x="0" y="0" width="960" height="540" fill="#052a60"></rect><defs><linearGradient id="grad1_0" x1="43.8%" y1="0%" x2="100%" y2="100%"><stop offset="14.444444444444446%" stop-color="#4fd9f7" stop-opacity="1"></stop><stop offset="85.55555555555554%" stop-color="#4fd9f7" stop-opacity="1"></stop></linearGradient></defs><defs><linearGradient id="grad1_1" x1="43.8%" y1="0%" x2="100%" y2="100%"><stop offset="14.444444444444446%" stop-color="#4fd9f7" stop-opacity="1"></stop><stop offset="85.55555555555554%" stop-color="#007db2" stop-opacity="1"></stop></linearGradient></defs><defs><linearGradient id="grad1_2" x1="43.8%" y1="0%" x2="100%" y2="100%"><stop offset="14.444444444444446%" stop-color="#052a60" stop-opacity="1"></stop><stop offset="85.55555555555554%" stop-color="#007db2" stop-opacity="1"></stop></linearGradient></defs><defs><linearGradient id="grad2_0" x1="0%" y1="0%" x2="56.3%" y2="100%"><stop offset="14.444444444444446%" stop-color="#4fd9f7" stop-opacity="1"></stop><stop offset="85.55555555555554%" stop-color="#4fd9f7" stop-opacity="1"></stop></linearGradient></defs><defs><linearGradient id="grad2_1" x1="0%" y1="0%" x2="56.3%" y2="100%"><stop offset="14.444444444444446%" stop-color="#007db2" stop-opacity="1"></stop><stop offset="85.55555555555554%" stop-color="#4fd9f7" stop-opacity="1"></stop></linearGradient></defs><defs><linearGradient id="grad2_2" x1="0%" y1="0%" x2="56.3%" y2="100%"><stop offset="14.444444444444446%" stop-color="#007db2" stop-opacity="1"></stop><stop offset="85.55555555555554%" stop-color="#052a60" stop-opacity="1"></stop></linearGradient></defs><g transform="translate(960, 0)"><path d="M0 459C-45.2 448.9 -90.3 438.7 -139.1 428C-187.8 417.2 -240.1 405.8 -269.8 371.3C-299.5 336.8 -306.6 279.3 -326 236.9C-345.4 194.5 -377.1 167.3 -401.3 130.4C-425.6 93.5 -442.3 46.7 -459 0L0 0Z" fill="#00528b"></path><path d="M0 306C-30.1 299.2 -60.2 292.5 -92.7 285.3C-125.2 278.1 -160.1 270.6 -179.9 247.6C-199.7 224.6 -204.4 186.2 -217.4 157.9C-230.3 129.7 -251.4 111.6 -267.6 86.9C-283.7 62.3 -294.9 31.2 -306 0L0 0Z" fill="#21aad7"></path><path d="M0 153C-15.1 149.6 -30.1 146.2 -46.4 142.7C-62.6 139.1 -80 135.3 -89.9 123.8C-99.8 112.3 -102.2 93.1 -108.7 79C-115.1 64.8 -125.7 55.8 -133.8 43.5C-141.9 31.2 -147.4 15.6 -153 0L0 0Z" fill="#4fd9f7"></path></g><g transform="translate(0, 540)"><path d="M0 -459C48.5 -455.4 97.1 -451.8 141.8 -436.5C186.6 -421.2 227.6 -394.3 263.3 -362.4C299 -330.6 329.3 -294 350.3 -254.5C371.3 -215 382.9 -172.7 399.4 -129.8C416 -86.9 437.5 -43.4 459 0L0 0Z" fill="#00528b"></path><path d="M0 -306C32.4 -303.6 64.7 -301.2 94.6 -291C124.4 -280.8 151.8 -262.8 175.6 -241.6C199.3 -220.4 219.6 -196 233.5 -169.7C247.5 -143.3 255.3 -115.1 266.3 -86.5C277.3 -57.9 291.7 -29 306 0L0 0Z" fill="#21aad7"></path><path d="M0 -153C16.2 -151.8 32.4 -150.6 47.3 -145.5C62.2 -140.4 75.9 -131.4 87.8 -120.8C99.7 -110.2 109.8 -98 116.8 -84.8C123.8 -71.7 127.6 -57.6 133.1 -43.3C138.7 -29 145.8 -14.5 153 0L0 0Z" fill="#4fd9f7"></path></g></svg>